M48
; DRILL file {KiCad 5.1.10-88a1d61d58~90~ubuntu20.04.1} date Sat Mar 19 22:50:16 2022
; FORMAT={-:-/ absolute / metric / decimal}
; #@! TF.CreationDate,2022-03-19T22:50:16+01:00
; #@! TF.GenerationSoftware,Kicad,Pcbnew,5.1.10-88a1d61d58~90~ubuntu20.04.1
; #@! TF.FileFunction,Plated,1,2,PTH
FMAT,2
METRIC
T1C0.200
T2C1.000
%
G90
G05
T1
X140.69Y-101.07
X140.69Y-102.27
X140.69Y-103.47
X140.69Y-104.67
X142.24Y-101.07
X142.24Y-102.27
X142.24Y-103.47
X142.24Y-104.67
X143.79Y-101.07
X143.79Y-102.27
X143.79Y-103.47
X143.79Y-104.67
T2
X133.35Y-80.01
X133.35Y-82.55
X133.35Y-85.09
X133.35Y-87.63
X133.35Y-90.17
X133.35Y-92.71
X133.35Y-95.25
X133.35Y-97.79
X133.35Y-100.33
X133.35Y-102.87
X133.35Y-105.41
X133.35Y-107.95
X133.35Y-110.49
X133.35Y-113.03
X133.35Y-115.57
X133.35Y-118.11
X133.35Y-120.65
X133.35Y-123.19
X133.35Y-125.73
X151.13Y-80.01
X151.13Y-82.55
X151.13Y-85.09
X151.13Y-87.63
X151.13Y-90.17
X151.13Y-92.71
X151.13Y-95.25
X151.13Y-97.79
X151.13Y-100.33
X151.13Y-102.87
X151.13Y-105.41
X151.13Y-107.95
X151.13Y-110.49
X151.13Y-113.03
X151.13Y-115.57
X151.13Y-118.11
X151.13Y-120.65
X151.13Y-123.19
X151.13Y-125.73
T0
M30
